<?xml version="1.0" encoding="UTF-8"?>
<svg version="1.1" xmlns="http://www.w3.org/2000/svg" width="20" height="20">
<path d="M0 0 C3.95679173 1.31893058 6.67452229 2.46871904 9 6 C9.33546893 9.69015821 9.22931633 13.30545909 9 17 C6.69 17 4.38 17 2 17 C2 15.35 2 13.7 2 12 C1.34 12 0.68 12 0 12 C0 13.65 0 15.3 0 17 C-2.31 17 -4.62 17 -7 17 C-8.0735426 7.42331839 -8.0735426 7.42331839 -5.44140625 3.93359375 C-3.68908403 2.47038707 -1.95246454 1.18044413 0 0 Z " fill="#FFFFFF" transform="translate(9,1)"/>
</svg>
